<?xml version="1.0" encoding="UTF-8" standalone="no"?>
<!DOCTYPE svg PUBLIC "-//W3C//DTD SVG 1.1//EN"
 "http://www.w3.org/Graphics/SVG/1.1/DTD/svg11.dtd">
<!-- Generated by graphviz version 2.34.0 (20130907.0228)
 -->
<!-- Title: %3 Pages: 1 -->
<svg width="1309pt" height="268pt"
 viewBox="0.00 0.00 1309.00 268.00" xmlns="http://www.w3.org/2000/svg" xmlns:xlink="http://www.w3.org/1999/xlink">
<g id="graph0" class="graph" transform="scale(1 1) rotate(0) translate(4 264)">
<title>%3</title>
<polygon fill="white" stroke="white" points="-4,4 -4,-264 1305,-264 1305,4 -4,4"/>
<!-- org_liveSense_service_apacheds_configurationLoader -->
<g id="node1" class="node"><title>org_liveSense_service_apacheds_configurationLoader</title>
<polygon fill="yellow" stroke="black" points="700.5,-223 700.5,-259 959.5,-259 959.5,-223 700.5,-223"/>
<text text-anchor="middle" x="830" y="-248.1" font-family="Arial" font-size="8.00">liveSense :: Misc :: ApacheDS service LDIF loader.</text>
<polyline fill="none" stroke="black" points="700.5,-241 959.5,-241 "/>
<text text-anchor="middle" x="830" y="-230.1" font-family="Arial" font-size="8.00">org.liveSense.service.apacheds.configurationLoader(2&#45;SNAPSHOT)</text>
</g>
<!-- org_apache_commons_io -->
<g id="node2" class="node"><title>org_apache_commons_io</title>
<polygon fill="green" stroke="black" points="931,-149 931,-185 1051,-185 1051,-149 931,-149"/>
<text text-anchor="middle" x="991" y="-174.1" font-family="Arial" font-size="8.00">Apache Commons IO Bundle</text>
<polyline fill="none" stroke="black" points="931,-167 1051,-167 "/>
<text text-anchor="middle" x="991" y="-156.1" font-family="Arial" font-size="8.00">org.apache.commons.io(1.4)</text>
</g>
<!-- org_liveSense_service_apacheds_configurationLoader&#45;&gt;org_apache_commons_io -->
<g id="edge1" class="edge"><title>org_liveSense_service_apacheds_configurationLoader&#45;&gt;org_apache_commons_io</title>
<path fill="none" stroke="yellow" d="M868.155,-222.937C890.73,-212.841 919.516,-199.968 943.547,-189.221"/>
<polygon fill="yellow" stroke="yellow" points="945.141,-192.343 952.84,-185.065 942.283,-185.953 945.141,-192.343"/>
</g>
<!-- org_apache_felix_configadmin -->
<g id="node3" class="node"><title>org_apache_felix_configadmin</title>
<polygon fill="green" stroke="black" points="747,-149 747,-185 913,-185 913,-149 747,-149"/>
<text text-anchor="middle" x="830" y="-174.1" font-family="Arial" font-size="8.00">Apache Felix Configuration Admin Service</text>
<polyline fill="none" stroke="black" points="747,-167 913,-167 "/>
<text text-anchor="middle" x="830" y="-156.1" font-family="Arial" font-size="8.00">org.apache.felix.configadmin(1.6.0)</text>
</g>
<!-- org_liveSense_service_apacheds_configurationLoader&#45;&gt;org_apache_felix_configadmin -->
<g id="edge2" class="edge"><title>org_liveSense_service_apacheds_configurationLoader&#45;&gt;org_apache_felix_configadmin</title>
<path fill="none" stroke="yellow" d="M830,-222.937C830,-214.807 830,-204.876 830,-195.705"/>
<polygon fill="yellow" stroke="yellow" points="833.5,-195.441 830,-185.441 826.5,-195.441 833.5,-195.441"/>
</g>
<!-- org_liveSense_service_apacheds -->
<g id="node4" class="node"><title>org_liveSense_service_apacheds</title>
<polygon fill="green" stroke="black" points="327,-149 327,-185 513,-185 513,-149 327,-149"/>
<text text-anchor="middle" x="420" y="-174.1" font-family="Arial" font-size="8.00">liveSense :: Service :: ApacheDS</text>
<polyline fill="none" stroke="black" points="327,-167 513,-167 "/>
<text text-anchor="middle" x="420" y="-156.1" font-family="Arial" font-size="8.00">org.liveSense.service.apacheds(2&#45;SNAPSHOT)</text>
</g>
<!-- org_liveSense_service_apacheds_configurationLoader&#45;&gt;org_liveSense_service_apacheds -->
<g id="edge3" class="edge"><title>org_liveSense_service_apacheds_configurationLoader&#45;&gt;org_liveSense_service_apacheds</title>
<path fill="none" stroke="yellow" d="M732.547,-222.943C674.56,-212.786 599.241,-199.583 523.336,-186.234"/>
<polygon fill="yellow" stroke="yellow" points="523.566,-182.721 513.111,-184.436 522.353,-189.615 523.566,-182.721"/>
</g>
<!-- org_liveSense_framework_apacheds -->
<g id="node5" class="node"><title>org_liveSense_framework_apacheds</title>
<polygon fill="green" stroke="black" points="531,-149 531,-185 729,-185 729,-149 531,-149"/>
<text text-anchor="middle" x="630" y="-174.1" font-family="Arial" font-size="8.00">liveSense :: Framework :: ApacheDS</text>
<polyline fill="none" stroke="black" points="531,-167 729,-167 "/>
<text text-anchor="middle" x="630" y="-156.1" font-family="Arial" font-size="8.00">org.liveSense.framework.apacheds(2&#45;SNAPSHOT)</text>
</g>
<!-- org_liveSense_service_apacheds_configurationLoader&#45;&gt;org_liveSense_framework_apacheds -->
<g id="edge4" class="edge"><title>org_liveSense_service_apacheds_configurationLoader&#45;&gt;org_liveSense_framework_apacheds</title>
<path fill="none" stroke="yellow" d="M782.603,-222.937C753.939,-212.618 717.214,-199.397 686.975,-188.511"/>
<polygon fill="yellow" stroke="yellow" points="687.998,-185.159 677.403,-185.065 685.626,-191.746 687.998,-185.159"/>
</g>
<!-- org_ops4j_pax_logging_pax_logging_api -->
<g id="node6" class="node"><title>org_ops4j_pax_logging_pax_logging_api</title>
<polygon fill="green" stroke="black" points="1069.5,-149 1069.5,-185 1242.5,-185 1242.5,-149 1069.5,-149"/>
<text text-anchor="middle" x="1156" y="-174.1" font-family="Arial" font-size="8.00">OPS4J Pax Logging &#45; API</text>
<polyline fill="none" stroke="black" points="1069.5,-167 1242.5,-167 "/>
<text text-anchor="middle" x="1156" y="-156.1" font-family="Arial" font-size="8.00">org.ops4j.pax.logging.pax&#45;logging&#45;api(1.7.0)</text>
</g>
<!-- org_liveSense_service_apacheds_configurationLoader&#45;&gt;org_ops4j_pax_logging_pax_logging_api -->
<g id="edge5" class="edge"><title>org_liveSense_service_apacheds_configurationLoader&#45;&gt;org_ops4j_pax_logging_pax_logging_api</title>
<path fill="none" stroke="yellow" d="M907.257,-222.937C955.888,-212.196 1018.75,-198.312 1069.12,-187.189"/>
<polygon fill="yellow" stroke="yellow" points="1070.01,-190.577 1079.02,-185.003 1068.5,-183.742 1070.01,-190.577"/>
</g>
<!-- org_apache_felix_configadmin&#45;&gt;org_ops4j_pax_logging_pax_logging_api -->
<g id="edge6" class="edge"><title>org_apache_felix_configadmin&#45;&gt;org_ops4j_pax_logging_pax_logging_api</title>
<path fill="none" stroke="green" d="M869.404,-185.091C887.717,-192.537 910.039,-200.281 931,-204 983.513,-213.316 998.43,-212.991 1051,-204 1069.16,-200.895 1088.34,-194.974 1105.28,-188.765"/>
<polygon fill="green" stroke="green" points="1106.86,-191.91 1114.97,-185.094 1104.38,-185.365 1106.86,-191.91"/>
</g>
<!-- org_liveSense_service_apacheds&#45;&gt;org_liveSense_framework_apacheds -->
<g id="edge8" class="edge"><title>org_liveSense_service_apacheds&#45;&gt;org_liveSense_framework_apacheds</title>
<path fill="none" stroke="green" d="M513.105,-167C515.702,-167 518.3,-167 520.897,-167"/>
<polygon fill="green" stroke="green" points="520.914,-170.5 530.914,-167 520.914,-163.5 520.914,-170.5"/>
</g>
<!-- org_liveSense_service_apacheds&#45;&gt;org_ops4j_pax_logging_pax_logging_api -->
<g id="edge7" class="edge"><title>org_liveSense_service_apacheds&#45;&gt;org_ops4j_pax_logging_pax_logging_api</title>
<path fill="none" stroke="green" d="M463.205,-185.001C483.415,-192.48 508.042,-200.274 531,-204 645.063,-222.51 937.098,-223.481 1051,-204 1069.16,-200.895 1088.34,-194.974 1105.28,-188.765"/>
<polygon fill="green" stroke="green" points="1106.86,-191.91 1114.97,-185.094 1104.38,-185.365 1106.86,-191.91"/>
</g>
<!-- org_liveSense_framework_apacheds&#45;&gt;org_apache_commons_io -->
<g id="edge10" class="edge"><title>org_liveSense_framework_apacheds&#45;&gt;org_apache_commons_io</title>
<path fill="none" stroke="#3182bd" d="M675.625,-185.005C696.944,-192.485 722.892,-200.279 747,-204 819.914,-215.255 841.024,-220.206 913,-204 926.283,-201.009 939.961,-195.482 952.081,-189.595"/>
<polygon fill="#3182bd" stroke="#3182bd" points="953.682,-192.707 961.013,-185.059 950.512,-186.466 953.682,-192.707"/>
</g>
<!-- org_liveSense_framework_apacheds&#45;&gt;org_ops4j_pax_logging_pax_logging_api -->
<g id="edge17" class="edge"><title>org_liveSense_framework_apacheds&#45;&gt;org_ops4j_pax_logging_pax_logging_api</title>
<path fill="none" stroke="#3182bd" d="M675.625,-185.005C696.944,-192.485 722.892,-200.279 747,-204 880.53,-224.611 917.823,-226.778 1051,-204 1069.16,-200.895 1088.34,-194.974 1105.28,-188.765"/>
<polygon fill="#3182bd" stroke="#3182bd" points="1106.86,-191.91 1114.97,-185.094 1104.38,-185.365 1106.86,-191.91"/>
</g>
<!-- org_apache_commons_collections -->
<g id="node8" class="node"><title>org_apache_commons_collections</title>
<polygon fill="#9ecae1" stroke="black" points="569,-75 569,-111 725,-111 725,-75 569,-75"/>
<text text-anchor="middle" x="647" y="-100.1" font-family="Arial" font-size="8.00">Commons Collections</text>
<polyline fill="none" stroke="black" points="569,-93 725,-93 "/>
<text text-anchor="middle" x="647" y="-82.1" font-family="Arial" font-size="8.00">org.apache.commons.collections(3.2.1)</text>
</g>
<!-- org_liveSense_framework_apacheds&#45;&gt;org_apache_commons_collections -->
<g id="edge11" class="edge"><title>org_liveSense_framework_apacheds&#45;&gt;org_apache_commons_collections</title>
<path fill="none" stroke="#3182bd" d="M634.029,-148.937C635.969,-140.719 638.344,-130.66 640.529,-121.406"/>
<polygon fill="#3182bd" stroke="#3182bd" points="643.99,-121.977 642.882,-111.441 637.178,-120.369 643.99,-121.977"/>
</g>
<!-- org_apache_commons_lang -->
<g id="node9" class="node"><title>org_apache_commons_lang</title>
<polygon fill="#9ecae1" stroke="black" points="-0.5,-75 -0.5,-111 126.5,-111 126.5,-75 -0.5,-75"/>
<text text-anchor="middle" x="63" y="-100.1" font-family="Arial" font-size="8.00">Commons Lang</text>
<polyline fill="none" stroke="black" points="-0.5,-93 126.5,-93 "/>
<text text-anchor="middle" x="63" y="-82.1" font-family="Arial" font-size="8.00">org.apache.commons.lang(2.6)</text>
</g>
<!-- org_liveSense_framework_apacheds&#45;&gt;org_apache_commons_lang -->
<g id="edge12" class="edge"><title>org_liveSense_framework_apacheds&#45;&gt;org_apache_commons_lang</title>
<path fill="none" stroke="#3182bd" d="M530.876,-149.194C527.886,-148.779 524.922,-148.379 522,-148 354.387,-126.245 307.661,-140.151 136.684,-111.959"/>
<polygon fill="#3182bd" stroke="#3182bd" points="137.025,-108.468 126.585,-110.269 135.87,-115.372 137.025,-108.468"/>
</g>
<!-- org_apache_commons_pool -->
<g id="node10" class="node"><title>org_apache_commons_pool</title>
<polygon fill="#9ecae1" stroke="black" points="145,-75 145,-111 279,-111 279,-75 145,-75"/>
<text text-anchor="middle" x="212" y="-100.1" font-family="Arial" font-size="8.00">Commons Pool</text>
<polyline fill="none" stroke="black" points="145,-93 279,-93 "/>
<text text-anchor="middle" x="212" y="-82.1" font-family="Arial" font-size="8.00">org.apache.commons.pool(1.5.6)</text>
</g>
<!-- org_liveSense_framework_apacheds&#45;&gt;org_apache_commons_pool -->
<g id="edge13" class="edge"><title>org_liveSense_framework_apacheds&#45;&gt;org_apache_commons_pool</title>
<path fill="none" stroke="#3182bd" d="M530.843,-149.424C527.862,-148.942 524.909,-148.466 522,-148 421.247,-131.854 392.973,-132.109 289.034,-112.125"/>
<polygon fill="#3182bd" stroke="#3182bd" points="289.557,-108.661 279.074,-110.193 288.224,-115.533 289.557,-108.661"/>
</g>
<!-- org_apache_servicemix_bundles_antlr -->
<g id="node11" class="node"><title>org_apache_servicemix_bundles_antlr</title>
<polygon fill="#9ecae1" stroke="black" points="297,-75 297,-111 471,-111 471,-75 297,-75"/>
<text text-anchor="middle" x="384" y="-100.1" font-family="Arial" font-size="8.00">Apache ServiceMix :: Bundles :: antlr</text>
<polyline fill="none" stroke="black" points="297,-93 471,-93 "/>
<text text-anchor="middle" x="384" y="-82.1" font-family="Arial" font-size="8.00">org.apache.servicemix.bundles.antlr(2.7.7.4)</text>
</g>
<!-- org_liveSense_framework_apacheds&#45;&gt;org_apache_servicemix_bundles_antlr -->
<g id="edge14" class="edge"><title>org_liveSense_framework_apacheds&#45;&gt;org_apache_servicemix_bundles_antlr</title>
<path fill="none" stroke="#3182bd" d="M571.701,-148.937C535.834,-138.439 489.706,-124.938 452.154,-113.948"/>
<polygon fill="#3182bd" stroke="#3182bd" points="452.886,-110.515 442.306,-111.065 450.92,-117.233 452.886,-110.515"/>
</g>
<!-- bcprov -->
<g id="node12" class="node"><title>bcprov</title>
<polygon fill="#9ecae1" stroke="black" points="489.5,-75 489.5,-111 550.5,-111 550.5,-75 489.5,-75"/>
<text text-anchor="middle" x="520" y="-100.1" font-family="Arial" font-size="8.00">bcprov</text>
<polyline fill="none" stroke="black" points="489.5,-93 550.5,-93 "/>
<text text-anchor="middle" x="520" y="-82.1" font-family="Arial" font-size="8.00">bcprov(1.46)</text>
</g>
<!-- org_liveSense_framework_apacheds&#45;&gt;bcprov -->
<g id="edge15" class="edge"><title>org_liveSense_framework_apacheds&#45;&gt;bcprov</title>
<path fill="none" stroke="#3182bd" d="M603.932,-148.937C589.244,-139.323 570.708,-127.19 554.793,-116.774"/>
<polygon fill="#3182bd" stroke="#3182bd" points="556.546,-113.738 546.263,-111.19 552.713,-119.595 556.546,-113.738"/>
</g>
<!-- org_apache_servicemix_bundles_ehcache -->
<g id="node13" class="node"><title>org_apache_servicemix_bundles_ehcache</title>
<polygon fill="#9ecae1" stroke="black" points="878.5,-75 878.5,-111 1067.5,-111 1067.5,-75 878.5,-75"/>
<text text-anchor="middle" x="973" y="-100.1" font-family="Arial" font-size="8.00">Apache ServiceMix :: Bundles :: ehcache</text>
<polyline fill="none" stroke="black" points="878.5,-93 1067.5,-93 "/>
<text text-anchor="middle" x="973" y="-82.1" font-family="Arial" font-size="8.00">org.apache.servicemix.bundles.ehcache(2.5.2.1)</text>
</g>
<!-- org_liveSense_framework_apacheds&#45;&gt;org_apache_servicemix_bundles_ehcache -->
<g id="edge16" class="edge"><title>org_liveSense_framework_apacheds&#45;&gt;org_apache_servicemix_bundles_ehcache</title>
<path fill="none" stroke="#3182bd" d="M711.286,-148.937C762.56,-138.174 828.872,-124.254 881.917,-113.119"/>
<polygon fill="#3182bd" stroke="#3182bd" points="882.933,-116.483 892.001,-111.003 881.495,-109.632 882.933,-116.483"/>
</g>
<!-- org_apache_mina_core -->
<g id="node14" class="node"><title>org_apache_mina_core</title>
<polygon fill="#9ecae1" stroke="black" points="743.5,-75 743.5,-111 860.5,-111 860.5,-75 743.5,-75"/>
<text text-anchor="middle" x="802" y="-100.1" font-family="Arial" font-size="8.00">Apache MINA Core</text>
<polyline fill="none" stroke="black" points="743.5,-93 860.5,-93 "/>
<text text-anchor="middle" x="802" y="-82.1" font-family="Arial" font-size="8.00">org.apache.mina.core(2.0.7)</text>
</g>
<!-- org_liveSense_framework_apacheds&#45;&gt;org_apache_mina_core -->
<g id="edge18" class="edge"><title>org_liveSense_framework_apacheds&#45;&gt;org_apache_mina_core</title>
<path fill="none" stroke="#3182bd" d="M670.762,-148.937C695.092,-138.752 726.177,-125.74 751.986,-114.936"/>
<polygon fill="#3182bd" stroke="#3182bd" points="753.36,-118.155 761.233,-111.065 750.657,-111.698 753.36,-118.155"/>
</g>
<!-- org_apache_felix_eventadmin -->
<g id="node7" class="node"><title>org_apache_felix_eventadmin</title>
<polygon fill="#9ecae1" stroke="black" points="1086,-75 1086,-111 1226,-111 1226,-75 1086,-75"/>
<text text-anchor="middle" x="1156" y="-100.1" font-family="Arial" font-size="8.00">Apache Felix EventAdmin</text>
<polyline fill="none" stroke="black" points="1086,-93 1226,-93 "/>
<text text-anchor="middle" x="1156" y="-82.1" font-family="Arial" font-size="8.00">org.apache.felix.eventadmin(1.3.2)</text>
</g>
<!-- org_ops4j_pax_logging_pax_logging_api&#45;&gt;org_apache_felix_eventadmin -->
<g id="edge9" class="edge"><title>org_ops4j_pax_logging_pax_logging_api&#45;&gt;org_apache_felix_eventadmin</title>
<path fill="none" stroke="#3182bd" d="M1150.16,-148.937C1149.3,-140.807 1149.05,-130.876 1149.41,-121.705"/>
<polygon fill="#3182bd" stroke="#3182bd" points="1152.92,-121.658 1150.12,-111.441 1145.94,-121.176 1152.92,-121.658"/>
</g>
<!-- org_apache_felix_eventadmin&#45;&gt;org_apache_felix_configadmin -->
<g id="edge20" class="edge"><title>org_apache_felix_eventadmin&#45;&gt;org_apache_felix_configadmin</title>
<path fill="none" stroke="#9ecae1" d="M1085.76,-109.825C1082.46,-110.562 1079.2,-111.29 1076,-112 1023.6,-123.647 964.881,-136.541 917.958,-146.809"/>
<polygon fill="#9ecae1" stroke="#9ecae1" points="917.151,-143.403 908.13,-148.959 918.647,-150.241 917.151,-143.403"/>
</g>
<!-- org_apache_felix_eventadmin&#45;&gt;org_ops4j_pax_logging_pax_logging_api -->
<g id="edge19" class="edge"><title>org_apache_felix_eventadmin&#45;&gt;org_ops4j_pax_logging_pax_logging_api</title>
<path fill="none" stroke="#9ecae1" d="M1161.88,-111.441C1162.72,-119.625 1162.95,-129.572 1162.57,-138.719"/>
<polygon fill="#9ecae1" stroke="#9ecae1" points="1159.06,-138.713 1161.84,-148.937 1166.04,-139.212 1159.06,-138.713"/>
</g>
<!-- org_apache_felix_metatype -->
<g id="node15" class="node"><title>org_apache_felix_metatype</title>
<polygon fill="#deebf7" stroke="black" points="1170.5,-1 1170.5,-37 1301.5,-37 1301.5,-1 1170.5,-1"/>
<text text-anchor="middle" x="1236" y="-26.1" font-family="Arial" font-size="8.00">Apache Felix Metatype Service</text>
<polyline fill="none" stroke="black" points="1170.5,-19 1301.5,-19 "/>
<text text-anchor="middle" x="1236" y="-8.1" font-family="Arial" font-size="8.00">org.apache.felix.metatype(1.0.6)</text>
</g>
<!-- org_apache_felix_eventadmin&#45;&gt;org_apache_felix_metatype -->
<g id="edge21" class="edge"><title>org_apache_felix_eventadmin&#45;&gt;org_apache_felix_metatype</title>
<path fill="none" stroke="#9ecae1" d="M1174.96,-74.937C1185.25,-65.6792 1198.13,-54.0857 1209.4,-43.9379"/>
<polygon fill="#9ecae1" stroke="#9ecae1" points="1211.81,-46.4813 1216.9,-37.19 1207.13,-41.2782 1211.81,-46.4813"/>
</g>
<!-- org_apache_servicemix_bundles_junit -->
<g id="node16" class="node"><title>org_apache_servicemix_bundles_junit</title>
<polygon fill="#deebf7" stroke="black" points="433.5,-1 433.5,-37 606.5,-37 606.5,-1 433.5,-1"/>
<text text-anchor="middle" x="520" y="-26.1" font-family="Arial" font-size="8.00">Apache ServiceMix :: Bundles :: junit</text>
<polyline fill="none" stroke="black" points="433.5,-19 606.5,-19 "/>
<text text-anchor="middle" x="520" y="-8.1" font-family="Arial" font-size="8.00">org.apache.servicemix.bundles.junit(3.8.2.4)</text>
</g>
<!-- bcprov&#45;&gt;org_apache_servicemix_bundles_junit -->
<g id="edge22" class="edge"><title>bcprov&#45;&gt;org_apache_servicemix_bundles_junit</title>
<path fill="none" stroke="#9ecae1" d="M520,-74.937C520,-66.8072 520,-56.8761 520,-47.7047"/>
<polygon fill="#9ecae1" stroke="#9ecae1" points="523.5,-47.4406 520,-37.4407 516.5,-47.4407 523.5,-47.4406"/>
</g>
<!-- org_apache_servicemix_bundles_ehcache&#45;&gt;org_ops4j_pax_logging_pax_logging_api -->
<g id="edge23" class="edge"><title>org_apache_servicemix_bundles_ehcache&#45;&gt;org_ops4j_pax_logging_pax_logging_api</title>
<path fill="none" stroke="#9ecae1" d="M1016.37,-111.065C1042.38,-121.295 1075.62,-134.377 1103.15,-145.208"/>
<polygon fill="#9ecae1" stroke="#9ecae1" points="1102.04,-148.533 1112.63,-148.937 1104.61,-142.019 1102.04,-148.533"/>
</g>
<!-- org_apache_geronimo_specs_geronimo_servlet_3_0_spec -->
<g id="node17" class="node"><title>org_apache_geronimo_specs_geronimo_servlet_3_0_spec</title>
<polygon fill="#deebf7" stroke="black" points="887,-1 887,-37 1117,-37 1117,-1 887,-1"/>
<text text-anchor="middle" x="1002" y="-26.1" font-family="Arial" font-size="8.00">Servlet 3.0</text>
<polyline fill="none" stroke="black" points="887,-19 1117,-19 "/>
<text text-anchor="middle" x="1002" y="-8.1" font-family="Arial" font-size="8.00">org.apache.geronimo.specs.geronimo&#45;servlet_3.0_spec(1.0)</text>
</g>
<!-- org_apache_servicemix_bundles_ehcache&#45;&gt;org_apache_geronimo_specs_geronimo_servlet_3_0_spec -->
<g id="edge24" class="edge"><title>org_apache_servicemix_bundles_ehcache&#45;&gt;org_apache_geronimo_specs_geronimo_servlet_3_0_spec</title>
<path fill="none" stroke="#9ecae1" d="M979.873,-74.937C983.254,-66.5421 987.409,-56.2266 991.202,-46.81"/>
<polygon fill="#9ecae1" stroke="#9ecae1" points="994.486,-48.0242 994.975,-37.4407 987.993,-45.4089 994.486,-48.0242"/>
</g>
<!-- org_apache_geronimo_specs_geronimo_jms_1_1_spec -->
<g id="node18" class="node"><title>org_apache_geronimo_specs_geronimo_jms_1_1_spec</title>
<polygon fill="#deebf7" stroke="black" points="643,-1 643,-37 869,-37 869,-1 643,-1"/>
<text text-anchor="middle" x="756" y="-26.1" font-family="Arial" font-size="8.00">geronimo&#45;jms_1.1_spec</text>
<polyline fill="none" stroke="black" points="643,-19 869,-19 "/>
<text text-anchor="middle" x="756" y="-8.1" font-family="Arial" font-size="8.00">org.apache.geronimo.specs.geronimo&#45;jms_1.1_spec(1.1.1)</text>
</g>
<!-- org_apache_servicemix_bundles_ehcache&#45;&gt;org_apache_geronimo_specs_geronimo_jms_1_1_spec -->
<g id="edge25" class="edge"><title>org_apache_servicemix_bundles_ehcache&#45;&gt;org_apache_geronimo_specs_geronimo_jms_1_1_spec</title>
<path fill="none" stroke="#9ecae1" d="M921.574,-74.937C890.204,-64.5286 849.937,-51.1679 816.967,-40.2287"/>
<polygon fill="#9ecae1" stroke="#9ecae1" points="818.026,-36.8924 807.432,-37.0651 815.821,-43.5363 818.026,-36.8924"/>
</g>
<!-- org_apache_mina_core&#45;&gt;org_ops4j_pax_logging_pax_logging_api -->
<g id="edge26" class="edge"><title>org_apache_mina_core&#45;&gt;org_ops4j_pax_logging_pax_logging_api</title>
<path fill="none" stroke="#9ecae1" d="M860.539,-109.783C863.734,-110.554 866.903,-111.299 870,-112 874.756,-113.077 977.805,-132.497 1058.85,-147.743"/>
<polygon fill="#9ecae1" stroke="#9ecae1" points="1058.65,-151.265 1069.12,-149.674 1059.94,-144.386 1058.65,-151.265"/>
</g>
<!-- org_apache_felix_metatype&#45;&gt;org_ops4j_pax_logging_pax_logging_api -->
<g id="edge27" class="edge"><title>org_apache_felix_metatype&#45;&gt;org_ops4j_pax_logging_pax_logging_api</title>
<path fill="none" stroke="#deebf7" d="M1240.28,-37.0977C1244.17,-56.4931 1247.58,-88.4766 1235,-112 1228.13,-124.85 1216.69,-135.234 1204.63,-143.332"/>
<polygon fill="#deebf7" stroke="#deebf7" points="1202.43,-140.577 1195.78,-148.829 1206.12,-146.522 1202.43,-140.577"/>
</g>
</g>
</svg>
